<?xml version="1.0" ?><svg height="100%" id="svg23" style="fill-rule:evenodd;clip-rule:evenodd;stroke-linejoin:round;stroke-miterlimit:2;" version="1.1" viewBox="0 0 64 64" width="100%" xml:space="preserve" xmlns="http://www.w3.org/2000/svg" xmlns:cc="http://creativecommons.org/ns#" xmlns:dc="http://purl.org/dc/elements/1.1/" xmlns:inkscape="http://www.inkscape.org/namespaces/inkscape" xmlns:rdf="http://www.w3.org/1999/02/22-rdf-syntax-ns#" xmlns:sodipodi="http://sodipodi.sourceforge.net/DTD/sodipodi-0.dtd" xmlns:svg="http://www.w3.org/2000/svg"><defs id="defs27"/><path d="m 32.0005,7.0002919 c -13.798043,0 -25.0000775,11.2024201 -25.0000775,24.9999131 0,13.797493 11.2020345,24.999913 25.0000775,24.999913 13.798043,0 25.000078,-11.20242 25.000078,-24.999913 0,-13.797493 -11.202035,-24.9999131 -25.000078,-24.9999131 z m 0,1.9996662 c 12.694039,0 23.000071,10.3057369 23.000071,23.0002469 0,12.69451 -10.306032,23.000247 -23.000071,23.000247 -12.694039,0 -23.0000713,-10.305737 -23.0000713,-23.000247 0,-12.69451 10.3060323,-23.0002469 23.0000713,-23.0002469 z" id="path4" style="stroke-width:1.01059;fill:#000000"/><path d="m 16.440638,33.756205 c 0.011,0.06 0.023,0.119 0.039,0.176 0.338001,1.467005 1.748005,2.469008 3.27501,2.285007 1.225004,-0.143 2.474008,-0.217 3.740011,-0.217 6.16102,0 11.918037,1.745005 16.799053,4.774014 1.345004,0.855003 3.136009,0.498002 4.057012,-0.816002 0,0 0,0 0,0 0.051,-0.072 0.098,-0.145001 0.135001,-0.224001 0.367001,-0.621002 0.496001,-1.370004 0.352001,-2.094006 -0.159001,-0.800003 -0.638002,-1.501005 -1.326004,-1.939006 -0.004,-0.003 -0.007,-0.005 -0.01,-0.007 -5.812019,-3.609012 -12.66804,-5.694018 -20.007063,-5.694018 -1.506004,0 -2.992009,0.088 -4.453013,0.255001 -0.002,0 -0.004,0.001 -0.006,0.001 -0.818003,0.099 -1.560005,0.530001 -2.051007,1.192003 -0.490001,0.662003 -0.687002,1.497005 -0.544001,2.308008 z m 26.228081,5.112015 c -0.326001,0.392002 -0.884003,0.484002 -1.311004,0.212001 -0.003,-0.002 -0.006,-0.004 -0.01,-0.005 -5.186016,-3.22001 -11.305035,-5.075016 -17.853056,-5.075016 -1.345004,0 -2.671008,0.078 -3.975012,0.231001 -10e-4,0 -0.003,0 -0.004,0 -0.526001,0.063 -1.009003,-0.295001 -1.101003,-0.817002 l -0.011,-0.051 c -0.033,-0.256 0.034,-0.516001 0.188,-0.724002 0.163001,-0.220001 0.410002,-0.364001 0.682002,-0.397001 1.385005,-0.159001 2.793009,-0.242001 4.221013,-0.242001 6.949022,0 13.441042,1.973006 18.945059,5.389017 0.226001,0.146 0.384001,0.377001 0.436002,0.641002 0.053,0.266001 -0.005,0.541002 -0.160001,0.763002 -0.017,0.024 -0.033,0.049 -0.047,0.075 z" id="path8" style="stroke-width:1;fill:#000000"/><path d="m 18.978645,41.392228 c 1.467005,-0.258 2.97601,-0.392001 4.516014,-0.392001 5.546018,0 10.688034,1.740005 14.911047,4.703015 0.451001,0.318001 1.076003,0.208 1.393004,-0.244001 0.317001,-0.451001 0.207001,-1.076003 -0.244001,-1.393004 -4.548014,-3.19101 -10.087031,-5.066016 -16.06005,-5.066016 -1.658005,0 -3.28201,0.144 -4.862015,0.422001 -0.544001,0.095 -0.907002,0.614002 -0.812002,1.157004 0.095,0.544001 0.614002,0.908003 1.158003,0.813002 z" id="path12" style="stroke-width:1;fill:#000000"/><path d="m 14.619632,24.426176 c 0.01,0.058 0.022,0.116 0.038,0.173 0.382001,1.732006 2.040006,2.917009 3.836012,2.696009 1.638005,-0.195001 3.30801,-0.295001 5.001015,-0.295001 8.121026,0 15.707049,2.310007 22.130069,6.315019 1.571005,1.003003 3.665011,0.588002 4.741015,-0.947003 0,0 0,0 0,0 0.051,-0.073 0.098,-0.145 0.135,-0.225 0.444002,-0.732003 0.603002,-1.619005 0.433002,-2.476008 -0.184001,-0.933003 -0.741003,-1.750005 -1.542005,-2.263007 -0.003,-0.002 -0.006,-0.004 -0.01,-0.006 -7.513024,-4.688015 -16.386051,-7.398023 -25.887081,-7.398023 -1.979006,0 -3.932012,0.118 -5.851018,0.343001 -0.002,0 -0.003,0 -0.005,0 -0.953003,0.118 -1.816005,0.621002 -2.387007,1.393004 -0.570002,0.772003 -0.799003,1.744006 -0.632002,2.690009 z m 34.055106,6.864021 c -0.485002,0.602002 -1.335005,0.747002 -1.983007,0.334001 -0.003,-0.002 -0.006,-0.004 -0.009,-0.006 -6.73002,-4.197013 -14.679045,-6.61802 -23.188072,-6.61802 -1.773005,0 -3.52201,0.105 -5.241016,0.31 -0.001,0 -0.002,0 -0.004,0 -0.790002,0.097 -1.518004,-0.441001 -1.656005,-1.226003 -0.004,-0.02 -0.008,-0.04 -0.013,-0.06 -0.054,-0.388001 0.046,-0.783002 0.280001,-1.099003 0.244001,-0.330001 0.613002,-0.546002 1.020003,-0.596002 1.842006,-0.216 3.715012,-0.329001 5.614017,-0.329001 9.110029,0 17.618055,2.597008 24.822077,7.091022 0.340001,0.219001 0.577002,0.567002 0.655002,0.964003 0.079,0.398001 -0.008,0.811003 -0.241,1.144004 -0.02,0.03 -0.039,0.06 -0.056,0.091 z M 14.619632,24.426176 Z" id="path16" style="stroke-width:1;fill:#000000"/></svg>